<?xml version="1.0" standalone="no"?><!DOCTYPE svg PUBLIC "-//W3C//DTD SVG 1.1//EN" "http://www.w3.org/Graphics/SVG/1.1/DTD/svg11.dtd"><svg t="1601258435491" class="icon" viewBox="0 0 1024 1024" version="1.1" xmlns="http://www.w3.org/2000/svg" p-id="1095" xmlns:xlink="http://www.w3.org/1999/xlink" width="200" height="200"><defs><style type="text/css"></style></defs><path d="M785.408 350.208c70.5792 0 128 57.4208 128 128 0 14.139392 11.460608 25.6 25.6 25.6s25.6-11.460608 25.6-25.6c0-98.81088-80.38912-179.2-179.2-179.2l-9.411584 0c-5.82144-61.17376-32.45056-117.926912-76.460032-161.936384C649.443328 86.97856 582.842368 59.392 512 59.392s-137.443328 27.58656-187.536384 77.679616c-44.009472 44.009472-70.638592 100.7616-76.460032 161.936384L238.592 299.008c-98.81088 0-179.2 80.38912-179.2 179.2l0 307.2c0 98.81088 80.38912 179.2 179.2 179.2l546.816 0c98.81088 0 179.2-80.38912 179.2-179.2L964.608 636.61568c0-14.139392-11.460608-25.6-25.6-25.6s-25.6 11.460608-25.6 25.6L913.408 785.408c0 70.5792-57.4208 128-128 128L238.592 913.408c-70.5792 0-128-57.4208-128-128L110.592 478.208c0-70.5792 57.4208-128 128-128L785.408 350.208zM512 110.592c109.345792 0 199.78752 82.433024 212.478976 188.416L299.521024 299.008C312.21248 193.025024 402.654208 110.592 512 110.592z" p-id="1096"></path><path d="M648.660992 588.585984c14.138368 0 25.6-11.461632 25.6-25.6s-11.461632-25.6-25.6-25.6l-74.857472 0 92.275712-92.275712c9.997312-9.997312 9.997312-26.207232 0-36.20352-9.998336-9.998336-26.206208-9.998336-36.20352 0L501.39648 537.385984 375.339008 537.385984c-14.138368 0-25.6 11.461632-25.6 25.6s11.461632 25.6 25.6 25.6L486.4 588.585984l0 86.444032L375.339008 675.030016c-14.138368 0-25.6 11.461632-25.6 25.6s11.461632 25.6 25.6 25.6L486.4 726.230016 486.4 836.608c0 14.138368 11.460608 25.6 25.6 25.6 14.138368 0 25.6-11.461632 25.6-25.6L537.6 726.230016l111.060992 0c14.138368 0 25.6-11.461632 25.6-25.6s-11.461632-25.6-25.6-25.6L537.6 675.030016l0-86.444032L648.660992 588.585984z" p-id="1097"></path><path d="M422.808576 509.999104c4.999168 4.999168 11.549696 7.497728 18.102272 7.497728s13.103104-2.49856 18.102272-7.497728c9.997312-9.997312 9.997312-26.207232 0-36.20352l-64.888832-64.888832c-9.998336-9.998336-26.206208-9.998336-36.20352 0-9.997312 9.998336-9.997312 26.207232 0 36.20352L422.808576 509.999104z" p-id="1098"></path></svg>